<svg width="200" height="208" viewBox="0 0 200 208" fill="none" xmlns="http://www.w3.org/2000/svg">
<path d="M98.0137 11.7002C101.655 19.9883 96.3585 47.8363 96.3585 47.8363C96.3585 47.8363 71.5309 33.2492 67.8895 24.9611C64.2482 16.673 67.8895 7.05885 76.1654 3.41209C84.4413 -0.234673 94.3723 3.41209 98.0137 11.7002Z" fill="#83BF4F"/>
<path d="M104.303 49.4936H95.6964C95.6964 35.238 103.641 11.0368 135.421 11.0368V19.6564C106.621 19.6564 104.303 46.8414 104.303 49.4936Z" fill="#947151"/>
<path d="M100 47.8359C75.8345 23.3032 4 22.3086 4 92.5917C4 137.016 56.3035 201 79.1448 201C89.4069 201 93.0483 194.37 99.3379 194.37C105.297 194.37 107.283 201 120.524 201C143.366 201 196 137.347 196 92.5917C196 22.3086 124.166 23.3032 100 47.8359Z" fill="#FF1800"/>
<rect x="96" y="8" width="8" height="8" fill="#FF5386"/>
<rect x="96" y="16" width="8" height="8" fill="#FF5386"/>
<rect x="96" y="24" width="8" height="8" fill="#FF5386"/>
<rect x="96" y="32" width="8" height="8" fill="#FF5386"/>
<rect x="96" y="40" width="8" height="8" fill="#FF5386"/>
<rect x="64" y="24" width="8" height="8" fill="#FF5386"/>
<rect x="72" y="32" width="8" height="8" fill="#FF5386"/>
<rect x="88" y="40" width="8" height="8" fill="#FF5386"/>
<rect x="80" y="32" width="8" height="8" fill="#FF5386"/>
<rect x="72" width="8" height="8" fill="#FF5386"/>
<rect x="64" y="8" width="8" height="8" fill="#FF5386"/>
<rect x="64" y="16" width="8" height="8" fill="#FF5386"/>
<rect x="88" width="8" height="8" fill="#FF5386"/>
<rect x="80" width="8" height="8" fill="#FF5386"/>
<rect x="96" y="48" width="8" height="8" fill="#FF5386"/>
<rect x="104" y="48" width="8" height="8" fill="#FF5386"/>
<rect x="88" y="48" width="8" height="8" fill="#FF5386"/>
<rect x="120" y="8" width="8" height="8" fill="#FF5386"/>
<rect x="104" y="16" width="8" height="8" fill="#FF5386"/>
<rect x="112" y="8" width="8" height="8" fill="#FF5386"/>
<rect x="128" y="8" width="8" height="8" fill="#FF5386"/>
<rect x="128" y="16" width="8" height="8" fill="#FF5386"/>
<rect x="112" y="24" width="8" height="8" fill="#FF5386"/>
<rect x="104" y="32" width="8" height="8" fill="#FF5386"/>
<rect x="104" y="40" width="8" height="8" fill="#FF5386"/>
<rect x="120" y="16" width="8" height="8" fill="#FF5386"/>
<rect x="32" y="32" width="8" height="8" fill="#FF5386"/>
<rect x="16" y="40" width="8" height="8" fill="#FF5386"/>
<rect x="8" y="48" width="8" height="8" fill="#FF5386"/>
<rect x="8" y="56" width="8" height="8" fill="#FF5386"/>
<rect y="64" width="8" height="8" fill="#FF5386"/>
<rect y="72" width="8" height="8" fill="#FF5386"/>
<rect y="80" width="8" height="8" fill="#FF5386"/>
<rect y="88" width="8" height="8" fill="#FF5386"/>
<rect x="24" y="40" width="8" height="8" fill="#FF5386"/>
<rect x="40" y="32" width="8" height="8" fill="#FF5386"/>
<rect x="48" y="32" width="8" height="8" fill="#FF5386"/>
<rect x="56" y="32" width="8" height="8" fill="#FF5386"/>
<rect x="64" y="32" width="8" height="8" fill="#FF5386"/>
<rect y="96" width="8" height="8" fill="#FF5386"/>
<rect y="104" width="8" height="8" fill="#FF5386"/>
<rect y="112" width="8" height="8" fill="#FF5386"/>
<rect x="8" y="120" width="8" height="8" fill="#FF5386"/>
<rect x="8" y="128" width="8" height="8" fill="#FF5386"/>
<rect x="16" y="136" width="8" height="8" fill="#FF5386"/>
<rect x="16" y="144" width="8" height="8" fill="#FF5386"/>
<rect x="24" y="152" width="8" height="8" fill="#FF5386"/>
<rect x="32" y="160" width="8" height="8" fill="#FF5386"/>
<rect x="32" y="168" width="8" height="8" fill="#FF5386"/>
<rect x="40" y="176" width="8" height="8" fill="#FF5386"/>
<rect x="48" y="184" width="8" height="8" fill="#FF5386"/>
<rect x="64" y="192" width="8" height="8" fill="#FF5386"/>
<rect x="56" y="192" width="8" height="8" fill="#FF5386"/>
<rect x="72" y="200" width="8" height="8" fill="#FF5386"/>
<rect x="88" y="192" width="8" height="8" fill="#FF5386"/>
<rect x="80" y="200" width="8" height="8" fill="#FF5386"/>
<rect x="96" y="192" width="8" height="8" fill="#FF5386"/>
<rect x="104" y="192" width="8" height="8" fill="#FF5386"/>
<rect x="112" y="200" width="8" height="8" fill="#FF5386"/>
<rect x="120" y="200" width="8" height="8" fill="#FF5386"/>
<rect x="192" y="96" width="8" height="8" fill="#FF5386"/>
<rect x="192" y="104" width="8" height="8" fill="#FF5386"/>
<rect x="192" y="112" width="8" height="8" fill="#FF5386"/>
<rect x="184" y="120" width="8" height="8" fill="#FF5386"/>
<rect x="184" y="128" width="8" height="8" fill="#FF5386"/>
<rect x="176" y="136" width="8" height="8" fill="#FF5386"/>
<rect x="176" y="144" width="8" height="8" fill="#FF5386"/>
<rect x="168" y="152" width="8" height="8" fill="#FF5386"/>
<rect x="160" y="160" width="8" height="8" fill="#FF5386"/>
<rect x="160" y="168" width="8" height="8" fill="#FF5386"/>
<rect x="152" y="176" width="8" height="8" fill="#FF5386"/>
<rect x="144" y="184" width="8" height="8" fill="#FF5386"/>
<rect x="128" y="192" width="8" height="8" fill="#FF5386"/>
<rect x="136" y="184" width="8" height="8" fill="#FF5386"/>
<rect x="192" y="88" width="8" height="8" fill="#FF5386"/>
<rect x="160" y="32" width="8" height="8" fill="#FF5386"/>
<rect x="120" y="32" width="8" height="8" fill="#FF5386"/>
<rect x="176" y="40" width="8" height="8" fill="#FF5386"/>
<rect x="184" y="48" width="8" height="8" fill="#FF5386"/>
<rect x="184" y="56" width="8" height="8" fill="#FF5386"/>
<rect x="192" y="64" width="8" height="8" fill="#FF5386"/>
<rect x="192" y="72" width="8" height="8" fill="#FF5386"/>
<rect x="192" y="80" width="8" height="8" fill="#FF5386"/>
<rect x="112" y="32" width="8" height="8" fill="#FF5386"/>
<rect x="128" y="32" width="8" height="8" fill="#FF5386"/>
<rect x="136" y="32" width="8" height="8" fill="#FF5386"/>
<rect x="144" y="32" width="8" height="8" fill="#FF5386"/>
<rect x="152" y="32" width="8" height="8" fill="#FF5386"/>
<rect x="168" y="40" width="8" height="8" fill="#FF5386"/>
</svg>
